<svg width="60" height="60" viewBox="0 0 60 60" fill="none" xmlns="http://www.w3.org/2000/svg">
<g clip-path="url(#clip0_2103_2513)">
<g clip-path="url(#clip1_2103_2513)">
<path fill-rule="evenodd" clip-rule="evenodd" d="M28.4148 55.212C28.7575 55.7576 29.3575 56.0903 30.0027 56.0903C30.648 56.0903 31.248 55.7576 31.5907 55.212C36.6657 47.1203 52.3598 22.096 55.962 16.3523C56.4015 15.6508 56.3293 14.7438 55.7832 14.1202C53.7176 11.7627 48.7626 6.10456 47.0925 4.1976C46.7363 3.79264 46.2221 3.55878 45.6821 3.55878C41.0552 3.55878 18.9503 3.55878 14.3234 3.55878C13.7834 3.55878 13.2692 3.79264 12.9129 4.1976C11.2429 6.10456 6.28782 11.7627 4.22229 14.1202C3.67622 14.7438 3.60398 15.6508 4.04354 16.3523C7.64564 22.096 23.3397 47.1203 28.4148 55.212Z" fill="#FDF0EA"/>
<path fill-rule="evenodd" clip-rule="evenodd" d="M3.83838 15.1874H56.192C56.1157 14.9374 55.987 14.701 55.8068 14.4947C53.7408 12.1373 48.782 6.47812 47.1113 4.57091C46.7561 4.16446 46.2408 3.93186 45.7006 3.93186C41.0732 3.93186 18.9572 3.93186 14.3299 3.93186C13.7896 3.93186 13.2744 4.16446 12.9192 4.57091C11.2483 6.47812 6.28959 12.1373 4.22357 14.4947C4.04348 14.701 3.91466 14.9374 3.83838 15.1874Z" fill="white"/>
<path fill-rule="evenodd" clip-rule="evenodd" d="M22.5112 15.1874L30.015 3.93186H14.3296C14.1508 3.93186 13.9745 3.95687 13.8057 4.0069L22.5112 15.1874ZM30.015 3.93186L37.5187 15.1874L46.2243 4.0069C46.0555 3.95687 45.8791 3.93186 45.7003 3.93186H30.015Z" fill="#FDF0EA"/>
<path fill-rule="evenodd" clip-rule="evenodd" d="M37.5187 15.1874H22.5112L30.015 3.93186L37.5187 15.1874Z" fill="white"/>
<path fill-rule="evenodd" clip-rule="evenodd" d="M30.015 56.4731L22.5112 15.1874H37.5187L30.015 56.4731Z" fill="white"/>
<path fill-rule="evenodd" clip-rule="evenodd" d="M15.0047 48.9918L16.4855 51.2638L18.7573 52.7444L16.4855 54.2239L15.0047 56.4958L13.5253 54.2239L11.2534 52.7444L13.5253 51.2638L15.0047 48.9918Z" fill="#FDF0EA"/>
<path fill-rule="evenodd" clip-rule="evenodd" d="M7.50474 33.9918L8.98551 36.2638L11.2574 37.7444L8.98551 39.2239L7.50474 41.4958L6.02527 39.2239L3.75342 37.7444L6.02527 36.2638L7.50474 33.9918Z" fill="#FDF0EA"/>
<path fill-rule="evenodd" clip-rule="evenodd" d="M51.2542 40.2413L52.735 42.5131L55.0069 43.9939L52.735 45.4734L51.2542 47.7452L49.7748 45.4734L47.5029 43.9939L49.7748 42.5131L51.2542 40.2413Z" fill="#FDF0EA"/>
<path d="M23.1339 48.1444C23.8247 48.1444 24.3846 47.5844 24.3846 46.8937C24.3846 46.203 23.8247 45.6431 23.1339 45.6431C22.4432 45.6431 21.8833 46.203 21.8833 46.8937C21.8833 47.5844 22.4432 48.1444 23.1339 48.1444Z" fill="#EB662B"/>
<path fill-rule="evenodd" clip-rule="evenodd" d="M5.33888 16.4381H21.4757L28.513 53.3803L26.3168 49.8798C25.9505 49.2946 25.1776 49.1183 24.5935 49.4846C24.0082 49.8511 23.8319 50.6239 24.1984 51.208C24.1984 51.208 26.552 54.9611 27.3661 56.2592C27.9377 57.171 28.9381 57.7237 30.015 57.7237C31.0918 57.7237 32.0922 57.171 32.6638 56.2592L57.0448 17.3923C57.7788 16.223 57.6575 14.7097 56.747 13.6705C54.681 11.313 49.7236 5.65397 48.0527 3.74677C47.4587 3.07018 46.602 2.68126 45.7003 2.68126H14.3297C13.4279 2.68126 12.5712 3.07018 11.9772 3.74677C10.3064 5.65397 5.34889 11.313 3.28285 13.6705C2.3724 14.7097 2.25109 16.223 2.9852 17.3923L20.0624 44.616C20.4301 45.2012 21.2018 45.3775 21.7871 45.0112C22.3711 44.6447 22.5487 43.8719 22.1822 43.2878L5.33888 16.4381ZM53.6555 13.9369L46.4657 5.73152L40.0775 13.9369H48.7744C49.4647 13.9369 50.025 14.4972 50.025 15.1876C50.025 15.8778 49.4647 16.4381 48.7744 16.4381H38.5542L31.5169 53.3803L54.6911 16.4381H52.5262C51.8359 16.4381 51.2756 15.8778 51.2756 15.1876C51.2756 14.4972 51.8359 13.9369 52.5262 13.9369H53.6555ZM36.0079 16.4381H24.022L30.015 47.8988L36.0079 16.4381ZM6.3744 13.9369H19.9524L13.5642 5.73152L6.3744 13.9369ZM24.8486 13.9369H35.1812L30.015 6.18677L24.8486 13.9369ZM43.7231 5.1825H32.3524L37.5976 13.0501L43.7231 5.1825ZM27.6775 5.1825H16.3069L22.4324 13.0501L27.6775 5.1825Z" fill="#EB662B"/>
<path fill-rule="evenodd" clip-rule="evenodd" d="M16.0527 48.3088C15.8224 47.9546 15.4288 47.7414 15.005 47.7414C14.5825 47.7414 14.189 47.9546 13.9573 48.3088L12.6213 50.3594L10.5706 51.6968C10.2165 51.9271 10.002 52.3207 10.002 52.7446C10.002 53.1671 10.2165 53.5606 10.5706 53.7923L12.6213 55.1282L13.9573 57.179C14.189 57.533 14.5825 57.7476 15.005 57.7476C15.4288 57.7476 15.8224 57.533 16.0527 57.179L17.3901 55.1282L19.4408 53.7923C19.7949 53.5606 20.008 53.1671 20.008 52.7446C20.008 52.3207 19.7949 51.9271 19.4408 51.6968L17.3901 50.3594L16.0527 48.3088ZM15.005 51.2821L15.4381 51.9469C15.5329 52.0916 15.6579 52.2167 15.8026 52.3115L16.4674 52.7446L15.8026 53.1762C15.6579 53.271 15.5329 53.396 15.4381 53.5422L15.005 54.2056L14.5732 53.5422C14.4786 53.396 14.3535 53.271 14.2074 53.1762L13.544 52.7446L14.2074 52.3115C14.3535 52.2167 14.4786 52.0916 14.5732 51.9469L15.005 51.2821Z" fill="#EB662B"/>
<path fill-rule="evenodd" clip-rule="evenodd" d="M8.55275 33.3088C8.32241 32.9546 7.92886 32.7414 7.50502 32.7414C7.08251 32.7414 6.68895 32.9546 6.45729 33.3088L5.12129 35.3594L3.07057 36.6968C2.7165 36.9271 2.50195 37.3207 2.50195 37.7446C2.50195 38.1671 2.7165 38.5606 3.07057 38.7923L5.12129 40.1282L6.45729 42.179C6.68895 42.533 7.08251 42.7476 7.50502 42.7476C7.92886 42.7476 8.32241 42.533 8.55275 42.179L9.89006 40.1282L11.9408 38.7923C12.2949 38.5606 12.508 38.1671 12.508 37.7446C12.508 37.3207 12.2949 36.9271 11.9408 36.6968L9.89006 35.3594L8.55275 33.3088ZM7.50502 36.2821L7.93806 36.9469C8.03284 37.0916 8.15788 37.2167 8.30267 37.3115L8.96737 37.7446L8.30267 38.1762C8.15788 38.271 8.03284 38.396 7.93806 38.5422L7.50502 39.2056L7.07329 38.5422C6.97852 38.396 6.85348 38.271 6.70738 38.1762L6.04398 37.7446L6.70738 37.3115C6.85348 37.2167 6.97852 37.0916 7.07329 36.9469L7.50502 36.2821Z" fill="#EB662B"/>
<path fill-rule="evenodd" clip-rule="evenodd" d="M52.3023 39.5581C52.0719 39.204 51.6783 38.9908 51.2545 38.9908C50.832 38.9908 50.4385 39.204 50.2068 39.5581L48.8708 41.6088L46.8201 42.9461C46.466 43.1765 46.2515 43.5701 46.2515 43.9939C46.2515 44.4164 46.466 44.8099 46.8201 45.0416L48.8708 46.3776L50.2068 48.4283C50.4385 48.7824 50.832 48.997 51.2545 48.997C51.6783 48.997 52.0719 48.7824 52.3023 48.4283L53.6396 46.3776L55.6903 45.0416C56.0444 44.8099 56.2577 44.4164 56.2577 43.9939C56.2577 43.5701 56.0444 43.1765 55.6903 42.9461L53.6396 41.6088L52.3023 39.5581ZM51.2545 42.5315L51.6876 43.1962C51.7824 43.341 51.9074 43.466 52.0523 43.5608L52.7169 43.9939L52.0523 44.4256C51.9074 44.5204 51.7824 44.6454 51.6876 44.7916L51.2545 45.4549L50.8229 44.7916C50.7281 44.6454 50.603 44.5204 50.4569 44.4256L49.7935 43.9939L50.4569 43.5608C50.603 43.466 50.7281 43.341 50.8229 43.1962L51.2545 42.5315Z" fill="#EB662B"/>
</g>
</g>
<defs>
<clipPath id="clip0_2103_2513">
<rect width="60" height="60" fill="white"/>
</clipPath>
<clipPath id="clip1_2103_2513">
<rect width="60" height="60" fill="white"/>
</clipPath>
</defs>
</svg>
